
<svg xmlns="http://www.w3.org/2000/svg" width="2048" height="2048" viewBox="0 0 2048 2048">
  <!-- Background circle -->
  <circle cx="1024" cy="1024" r="1024" fill="#000" />

  <!-- Cart Shape (white) -->
  <path fill="#fff" d="M487.333 552.53c-12.886 0-23.334 10.447-23.334 23.334 0 12.886 10.448 23.334 23.334 23.334h153.018l40.42 65.181 115.395 661.954 22.969-3.919-22.988 4.008c1.994 11.438 12.005 19.467 23.254 19.326h669.706c12.887 0 23.334-10.448 23.334-23.334 0-12.887-10.447-23.334-23.334-23.334H838.719l-15.965-91.581h659.982c18.161 0 33.836-7.246 45.54-18.95 11.617-11.617 19.103-27.771 20.813-45.4l34.562-355.995c.234-2.415.35-4.288.35-5.622 0-16.924-7.292-32.105-18.756-43.371-10.853-10.666-25.686-17.807-41.54-19.345-2.64-.255-4.791-.387-6.408-.387H737.498l-11.34-65.054a23.247 23.247 0 0 0-3.35-9.594l-.075.047-48.655-78.46c-3.844-7.615-11.734-12.838-20.845-12.838h-165.9z"/>

  <!-- Inner details (light gray) -->
  <path fill="#ccc" d="M937.337 1018.4h194.973v-98.661H937.337v98.661zm421.637 0v-98.661h-194.973v98.661h194.973zm31.691-276.636v143.111h159.308l-4.686 34.864h-154.622v98.66H1537.9l-4.543 34.865h-142.693v130.903h-31.691v-130.903H1164v130.903h-31.692v-130.903H937.335v130.903h-31.69v-130.903h-121.73l-7.18-34.864h128.91v-98.661H772.067l-7.407-34.864h140.982V741.764h31.692v143.111h194.973V741.764h31.691v143.111h194.973V741.764h31.692z"/>

  <!-- Wheels (white) -->
  <circle cx="915.9" cy="1410" r="85" fill="#fff"/>
  <circle cx="1355.2" cy="1410" r="85" fill="#fff"/>

  <!-- Wheel inner detail (gray) -->
  <circle cx="915.9" cy="1410" r="45" fill="#999"/>
  <circle cx="1355.2" cy="1410" r="45" fill="#999"/>
</svg>
